:FULLY-SPECIFIED
:FORCE-ALL-JOINTS-BE-3DOF
:DEGREES
510
root 5.9131 16.3099 -5.20726 -167.116 77.5937 -172.022
lfemur -24.0902 -14.8731 -23.1431
ltibia 53.0121 0 0
lfoot -26.4788 -1.08359 0
ltoes 5.00621 0 0
rfemur -57.8384 5.88577 4.58466
rtibia 57.7385 0 0
rfoot 12.0087 8.16998 0
rtoes -17.7442 0 0
lowerback 8.96742 0.427455 -0.74582
upperback 1.4996 0.70738 3.17728
thorax -3.52275 0.412707 3.63711
lowerneck -8.44669 -12.6124 -4.22119
upperneck 11.8907 -16.769 2.78615
head 5.55565 -8.1685 0.235386
lclavicle 1.51378e-14 4.94933e-15 0
lhumerus -46.7955 -34.9504 118.352
lradius 56.9376 0 0
lwrist 6.34418 0 0
lhand 6.12905 -0.940889 0
lfingers 7.12502 0 0
lthumb 31.4455 26.3677 0
rclavicle 1.51378e-14 4.94933e-15 0
rhumerus -12.3968 43.125 -71.5214
rradius 118.772 0 0
rwrist -21.883 0 0
rhand 24.7236 -12.9582 0
rfingers 7.12502 0 0
rthumb 48.8615 -754.396 0
511
root 5.97163 16.2809 -5.1512 -167.99 76.2793 -172.937
lfemur -24.1022 -14.234 -23.2819
ltibia 53.6913 0 0
lfoot -26.7465 0.102797 0
ltoes 3.73553 0 0
rfemur -57.5781 5.53098 4.107
rtibia 56.2667 0 0
rfoot 12.4176 8.17569 0
rtoes -18.3487 0 0
lowerback 9.12077 0.514347 -0.705095
upperback 1.59226 0.844376 3.39158
thorax -3.52338 0.484775 3.82186
lowerneck -8.30475 -12.8884 -4.44467
upperneck 12.0824 -17.135 2.91306
head 5.63457 -8.34385 0.271264
lclavicle 3.23337e-14 -1.27385e-15 0
lhumerus -46.5299 -34.8353 118.393
lradius 57.0416 0 0
lwrist 6.5801 0 0
lhand 5.42975 -1.28404 0
lfingers 7.12502 0 0
lthumb 30.7793 26.1546 0
rclavicle 3.23337e-14 -1.27385e-15 0
rhumerus -9.53409 41.4531 -69.3636
rradius 121.04 0 0
rwrist -27.522 0 0
rhand 27.6052 -13.486 0
rfingers 7.12502 0 0
rthumb 51.5169 -753.679 0
512
root 6.02504 16.2519 -5.10027 -168.693 75.0753 -173.721
lfemur -24.1735 -13.6461 -23.4015
ltibia 54.3304 0 0
lfoot -27.024 1.18555 0
ltoes 2.59832 0 0
rfemur -57.3378 5.16315 3.64834
rtibia 54.9244 0 0
rfoot 12.7254 8.24372 0
rtoes -19.017 0 0
lowerback 9.22882 0.586354 -0.670043
upperback 1.66754 0.959666 3.58606
thorax -3.51572 0.545763 3.9916
lowerneck -8.16919 -13.133 -4.64105
upperneck 12.2435 -17.4605 3.03047
head 5.70154 -8.49947 0.304551
lclavicle 5.60573e-14 -7.15625e-15 0
lhumerus -46.2895 -34.669 118.396
lradius 57.1515 0 0
lwrist 6.82495 0 0
lhand 4.68514 -1.62149 0
lfingers 7.12502 0 0
lthumb 30.0696 25.9532 0
rclavicle 5.60573e-14 -7.15625e-15 0
rhumerus -7.02353 39.6445 -67.6231
rradius 123.01 0 0
rwrist -32.4975 0 0
rhand 30.0326 -14.0088 0
rfingers 7.12502 0 0
rthumb 53.7363 -753.024 0
513
root 6.07745 16.2132 -5.05134 -169.064 73.8204 -174.283
lfemur -24.568 -13.1237 -23.4424
ltibia 55.2289 0 0
lfoot -27.2617 1.96113 0
ltoes 1.61629 0 0
rfemur -57.0315 4.69189 3.13318
rtibia 53.6149 0 0
rfoot 12.8386 8.39548 0
rtoes -20.043 0 0
lowerback 9.26468 0.60659 -0.544741
upperback 1.73221 1.01663 3.78145
thorax -3.47442 0.577487 4.11857
lowerneck -8.04657 -13.3442 -4.80911
upperneck 12.3618 -17.7418 3.13397
head 5.75492 -8.6337 0.333225
lclavicle 2.99568e-14 -8.08584e-15 0
lhumerus -46.0903 -34.3086 118.274
lradius 57.3417 0 0
lwrist 7.32215 0 0
lhand 3.58373 -1.99253 0
lfingers 7.12502 0 0
lthumb 29.017 25.7566 0
rclavicle 2.99568e-14 -8.08584e-15 0
rhumerus -4.975 37.3096 -66.9554
rradius 124.525 0 0
rwrist -35.7629 0 0
rhand 29.796 -13.8369 0
rfingers 7.12502 0 0
rthumb 53.5147 -752.928 0
514
root 6.13484 16.1682 -4.99807 -169.406 72.4359 -174.814
lfemur -25.0588 -12.5636 -23.461
ltibia 56.3073 0 0
lfoot -27.4737 2.69293 0
ltoes 0.593894 0 0
rfemur -56.6336 4.19835 2.55952
rtibia 52.2069 0 0
rfoot 12.9406 8.54806 0
rtoes -21.2152 0 0
lowerback 9.31762 0.61741 -0.368906
upperback 1.81848 1.06975 4.00254
thorax -3.41952 0.60795 4.24432
lowerneck -7.91902 -13.5694 -4.98758
upperneck 12.4755 -18.0414 3.24443
head 5.80903 -8.77679 0.363636
lclavicle 9.87548e-15 -1.00169e-14 0
lhumerus -45.8843 -33.8862 118.117
lradius 57.5714 0 0
lwrist 7.95007 0 0
lhand 2.30107 -2.40105 0
lfingers 7.12502 0 0
lthumb 27.7901 25.5406 0
rclavicle 9.87548e-15 -1.00169e-14 0
rhumerus -2.82681 34.7494 -66.4888
rradius 126.066 0 0
rwrist -38.7543 0 0
rhand 28.486 -13.5112 0
rfingers 7.12502 0 0
rthumb 52.3094 -753.184 0
515
root 6.19531 16.1188 -4.94222 -169.718 70.9741 -175.304
lfemur -25.6151 -11.981 -23.4596
ltibia 57.5181 0 0
lfoot -27.6578 3.36492 0
ltoes -0.43373 0 0
rfemur -56.1582 3.70626 1.94722
rtibia 50.7524 0 0
rfoot 13.034 8.69631 0
rtoes -22.478 0 0
lowerback 9.38913 0.620678 -0.153678
upperback 1.92457 1.11978 4.24148
thorax -3.35376 0.637478 4.36685
lowerneck -7.78947 -13.8017 -5.17064
upperneck 12.5807 -18.3501 3.35925
head 5.86191 -8.92432 0.395156
lclavicle -6.05396e-15 -1.26851e-14 0
lhumerus -45.6771 -33.4214 117.932
lradius 57.8299 0 0
lwrist 8.67885 0 0
lhand 0.889024 -2.83258 0
lfingers 7.12502 0 0
lthumb 26.4385 25.3119 0
rclavicle -6.05396e-15 -1.26851e-14 0
rhumerus -0.645107 32.0644 -66.215
rradius 127.587 0 0
rwrist -41.4137 0 0
rhand 26.2413 -13.0958 0
rfingers 7.12502 0 0
rthumb 50.2421 -753.746 0
516
root 6.25697 16.0667 -4.88555 -170.004 69.4873 -175.742
lfemur -26.2066 -11.3909 -23.4405
ltibia 58.814 0 0
lfoot -27.8115 3.96105 0
ltoes -1.43143 0 0
rfemur -55.6192 3.23932 1.31615
rtibia 49.3037 0 0
rfoot 13.1211 8.83509 0
rtoes -23.7754 0 0
lowerback 9.48068 0.618259 0.0898042
upperback 2.04872 1.1675 4.49041
thorax -3.27987 0.666395 4.48413
lowerneck -7.66086 -14.0341 -5.35248
upperneck 12.6733 -18.6589 3.47583
head 5.91159 -9.0719 0.42716
lclavicle -1.96988e-14 -1.58263e-14 0
lhumerus -45.4743 -32.9337 117.727
lradius 58.1066 0 0
lwrist 9.47866 0 0
lhand -0.600543 -3.27268 0
lfingers 7.12502 0 0
lthumb 25.0119 25.0774 0
rclavicle -1.96988e-14 -1.58263e-14 0
rhumerus 1.50397 29.3551 -66.1256
rradius 129.043 0 0
rwrist -43.6834 0 0
rhand 23.2008 -12.6547 0
rfingers 7.12502 0 0
rthumb 47.4343 -754.571 0
517
root 6.3179 16.0134 -4.82979 -170.263 68.0277 -176.119
lfemur -26.8027 -10.8084 -23.4061
ltibia 60.1474 0 0
lfoot -27.9327 4.46529 0
ltoes -2.36404 0 0
rfemur -55.0306 2.82124 0.686164
rtibia 47.913 0 0
rfoot 13.2044 8.95924 0
rtoes -25.0519 0 0
lowerback 9.59377 0.612019 0.350401
upperback 2.18916 1.21366 4.74151
thorax -3.20058 0.695028 4.59417
lowerneck -7.53612 -14.2594 -5.52728
upperneck 12.7495 -18.9584 3.59158
head 5.95611 -9.21513 0.459018
lclavicle -3.29264e-14 -1.9176e-14 0
lhumerus -45.2815 -32.4427 117.51
lradius 58.3909 0 0
lwrist 10.3196 0 0
lhand -2.11576 -3.70689 0
lfingers 7.12502 0 0
lthumb 23.5599 24.844 0
rclavicle -3.29264e-14 -1.9176e-14 0
rhumerus 3.55429 26.7221 -66.2121
rradius 130.389 0 0
rwrist -45.5053 0 0
rhand 19.5034 -12.2521 0
rfingers 7.12502 0 0
rthumb 44.0075 -755.616 0
